<svg xmlns="http://www.w3.org/2000/svg" xmlns:xlink="http://www.w3.org/1999/xlink" viewBox="0 0 302.88 156.04"><defs><style>.cls-1{fill:#9a7b48;}.cls-2{fill:#119142;}.cls-3{fill:url(#linear-gradient);}.cls-4{fill:url(#linear-gradient-2);}</style><linearGradient id="linear-gradient" x1="35.16" y1="81.56" x2="117.46" y2="61.52" gradientUnits="userSpaceOnUse"><stop offset="0" stop-color="#f5d19d"></stop><stop offset="1" stop-color="#eba532"></stop></linearGradient><linearGradient id="linear-gradient-2" x1="229.08" y1="44.64" x2="240.39" y2="90.64" xlink:href="#linear-gradient"></linearGradient></defs><g id="&#x30EC;&#x30A4;&#x30E4;&#x30FC;_2" data-name="&#x30EC;&#x30A4;&#x30E4;&#x30FC; 2"><g id="&#x30EC;&#x30A4;&#x30E4;&#x30FC;_1-2" data-name="&#x30EC;&#x30A4;&#x30E4;&#x30FC; 1"><path class="cls-1" d="M83.22,103.1h9.61q9.61,0,13,.67a9,9,0,0,1,5.55,3.45q2.14,2.76,2.14,8.84c0,3.69-.5,6.18-1.51,7.45s-3,2-6,2.29c2.69.6,4.49,1.41,5.42,2.43a7.09,7.09,0,0,1,1.72,2.8,39.78,39.78,0,0,1,.34,7v12.52H100.93V134.8c0-2.54-.22-4.11-.66-4.72s-1.6-.91-3.47-.91v21.41H83.22Zm13.58,8.12v10.56a6.48,6.48,0,0,0,3.21-.57c.61-.38.92-1.62.92-3.71v-2.61c0-1.51-.3-2.5-.89-3A5.5,5.5,0,0,0,96.8,111.22Z"></path><path class="cls-1" d="M151,111.66l-3.73,28.16q-.88,6.69-1.48,9.12a9.49,9.49,0,0,1-2,4,8.17,8.17,0,0,1-3.86,2.33,29.65,29.65,0,0,1-7.88.75h-7.91v-6.22a16.23,16.23,0,0,0,3.91-.28,1.18,1.18,0,0,0,.88-1.25,40.05,40.05,0,0,0-.81-4.07L121,111.66h11.83l4.29,26.28,2.09-26.28Z"></path><path class="cls-1" d="M188.45,111.66v38.92H175.19l.22-3.23a8.72,8.72,0,0,1-3.34,3,10.07,10.07,0,0,1-4.56,1,11.21,11.21,0,0,1-4.87-.94,6.49,6.49,0,0,1-2.86-2.5,8.5,8.5,0,0,1-1.14-3.24,62.25,62.25,0,0,1-.23-6.7V111.66h13v26.49a25.62,25.62,0,0,0,.3,5.39c.21.57.76.85,1.66.85s1.55-.29,1.73-.88a31.1,31.1,0,0,0,.27-5.66V111.66Z"></path><path class="cls-1" d="M226.48,111.66l-5.29,15.5,6.87,23.42H215.53l-4.07-17v17h-13V103.1h13V123l4.07-11.37Z"></path><path class="cls-1" d="M262.57,111.66l-3.73,28.16c-.58,4.46-1.08,7.5-1.48,9.12a9.38,9.38,0,0,1-2,4,8.12,8.12,0,0,1-3.86,2.33,29.65,29.65,0,0,1-7.88.75h-7.91v-6.22a16.23,16.23,0,0,0,3.91-.28,1.18,1.18,0,0,0,.88-1.25,40.05,40.05,0,0,0-.81-4.07l-7.14-32.56H244.4l4.29,26.28,2.09-26.28Z"></path><path class="cls-1" d="M300,111.66v38.92H286.77l.22-3.23a8.76,8.76,0,0,1-3.33,3,10.14,10.14,0,0,1-4.57,1,11.21,11.21,0,0,1-4.87-.94,6.54,6.54,0,0,1-2.86-2.5,8.5,8.5,0,0,1-1.14-3.24,62.25,62.25,0,0,1-.23-6.7V111.66h13v26.49a25.62,25.62,0,0,0,.3,5.39c.21.57.76.85,1.66.85s1.55-.29,1.73-.88a31.1,31.1,0,0,0,.27-5.66V111.66Z"></path><path class="cls-2" d="M48.8,151.53l-32.85,0L94.33,0l81.89.05L167.46,17l-49,0Z"></path><path class="cls-3" d="M174.07,59.1C134.7,41.92,75.84,40.06,0,104.71c0,0,87.61-42.75,174.07-45.59Z"></path><path class="cls-4" d="M174.07,59.12h.05l-.05,0Zm.05,0c37.43,16.36,57.25,46.56,57.25,46.56l71.51.91C270.74,68.5,222.62,57.54,174.12,59.12Z"></path></g></g></svg>